# xmcd
# 
# Track frame offsets:
#     150
#     24947
#     47965
#     66619
#     90305
# 
# Disc length: 1476
# 
# Revision: 0
# Processed by: cddbd v1.5.2PL0 Copyright (c) Steve Scherf et al.
# Submitted via: fre:ac v1.0.17
# 
DISCID=3b05c205
DTITLE=浅井健一 - Nancy Disc.2
DYEAR=2014
DGENRE=Rock
TTITLE0=ゴースト
TTITLE1=MORRIS SACRAMENT
TTITLE2=Remmy Roll
TTITLE3=並木道
TTITLE4=プラネタリウム
EXTD=
EXTT0=
EXTT1=
EXTT2=
EXTT3=
EXTT4=
PLAYORDER=
